<svg width="85" height="25" viewBox="0 0 85 25" fill="none" xmlns="http://www.w3.org/2000/svg">
<path d="M11.2049 16.088C10.4055 16.088 9.7602 15.9303 9.26887 15.615C9.0342 15.4757 8.91687 15.2777 8.91687 15.021C8.91687 14.8743 8.9572 14.757 9.03787 14.669C9.11854 14.5737 9.21754 14.526 9.33487 14.526C9.45954 14.526 9.63187 14.5847 9.85187 14.702C10.0865 14.812 10.2992 14.8963 10.4899 14.955C10.6879 15.0137 10.9372 15.043 11.2379 15.043C11.5459 15.043 11.7842 14.9917 11.9529 14.889C12.1289 14.7863 12.2169 14.6433 12.2169 14.46C12.2169 14.3353 12.1802 14.2363 12.1069 14.163C12.0409 14.0897 11.9162 14.0237 11.7329 13.965C11.5569 13.899 11.2855 13.8257 10.9189 13.745C10.2662 13.613 9.79687 13.426 9.51087 13.184C9.2322 12.942 9.09287 12.6083 9.09287 12.183C9.09287 11.8603 9.1882 11.5707 9.37887 11.314C9.56954 11.05 9.82987 10.8483 10.1599 10.709C10.4972 10.5623 10.8785 10.489 11.3039 10.489C11.6119 10.489 11.9089 10.5293 12.1949 10.61C12.4809 10.6833 12.7375 10.7933 12.9649 10.94C13.1995 11.0867 13.3169 11.281 13.3169 11.523C13.3169 11.6697 13.2765 11.7943 13.1959 11.897C13.1152 11.9923 13.0162 12.04 12.8989 12.04C12.8182 12.04 12.7375 12.0253 12.6569 11.996C12.5835 11.9593 12.4882 11.908 12.3709 11.842C12.1582 11.732 11.9749 11.6513 11.8209 11.6C11.6669 11.5413 11.4762 11.512 11.2489 11.512C10.9775 11.512 10.7612 11.567 10.5999 11.677C10.4459 11.787 10.3689 11.9373 10.3689 12.128C10.3689 12.3113 10.4495 12.4507 10.6109 12.546C10.7722 12.6413 11.0839 12.7367 11.5459 12.832C12.0372 12.9347 12.4222 13.052 12.7009 13.184C12.9795 13.316 13.1775 13.481 13.2949 13.679C13.4195 13.877 13.4819 14.13 13.4819 14.438C13.4819 14.9367 13.2729 15.3363 12.8549 15.637C12.4442 15.9377 11.8942 16.088 11.2049 16.088ZM18.7877 10.489C19.2497 10.489 19.6604 10.6063 20.0197 10.841C20.3864 11.0757 20.6687 11.4093 20.8667 11.842C21.0721 12.2673 21.1747 12.7587 21.1747 13.316C21.1747 13.8733 21.0721 14.361 20.8667 14.779C20.6687 15.197 20.3901 15.5197 20.0307 15.747C19.6714 15.9743 19.2571 16.088 18.7877 16.088C18.4064 16.088 18.0654 16.0073 17.7647 15.846C17.4641 15.6847 17.2331 15.461 17.0717 15.175V17.419C17.0717 17.6097 17.0094 17.76 16.8847 17.87C16.7601 17.98 16.5951 18.035 16.3897 18.035C16.1844 18.035 16.0157 17.9763 15.8837 17.859C15.7591 17.7417 15.6967 17.5877 15.6967 17.397V11.16C15.6967 10.962 15.7554 10.8043 15.8727 10.687C15.9974 10.5697 16.1624 10.511 16.3677 10.511C16.5731 10.511 16.7381 10.5697 16.8627 10.687C16.9874 10.8043 17.0497 10.962 17.0497 11.16V11.435C17.2111 11.1343 17.4421 10.9033 17.7427 10.742C18.0507 10.5733 18.3991 10.489 18.7877 10.489ZM18.4247 15.021C18.8574 15.021 19.1947 14.8743 19.4367 14.581C19.6787 14.2803 19.7997 13.8587 19.7997 13.316C19.7997 12.7587 19.6787 12.326 19.4367 12.018C19.1947 11.71 18.8574 11.556 18.4247 11.556C17.9847 11.556 17.6437 11.7063 17.4017 12.007C17.1671 12.3077 17.0497 12.7367 17.0497 13.294C17.0497 13.844 17.1671 14.2693 17.4017 14.57C17.6437 14.8707 17.9847 15.021 18.4247 15.021ZM26.4062 10.511C26.5968 10.4963 26.7472 10.5367 26.8572 10.632C26.9672 10.7273 27.0222 10.8703 27.0222 11.061C27.0222 11.259 26.9745 11.4057 26.8792 11.501C26.7838 11.5963 26.6115 11.6587 26.3622 11.688L26.0322 11.721C25.5995 11.765 25.2805 11.9117 25.0752 12.161C24.8772 12.4103 24.7782 12.722 24.7782 13.096V15.406C24.7782 15.6187 24.7122 15.7837 24.5802 15.901C24.4482 16.011 24.2832 16.066 24.0852 16.066C23.8872 16.066 23.7222 16.011 23.5902 15.901C23.4655 15.7837 23.4032 15.6187 23.4032 15.406V11.149C23.4032 10.9437 23.4655 10.786 23.5902 10.676C23.7222 10.566 23.8835 10.511 24.0742 10.511C24.2648 10.511 24.4188 10.566 24.5362 10.676C24.6535 10.7787 24.7122 10.929 24.7122 11.127V11.567C24.8515 11.2443 25.0568 10.995 25.3282 10.819C25.6068 10.643 25.9148 10.544 26.2522 10.522L26.4062 10.511ZM31.0246 10.489C31.7726 10.489 32.3263 10.676 32.6856 11.05C33.0523 11.4167 33.2356 11.9777 33.2356 12.733V15.417C33.2356 15.615 33.177 15.7727 33.0596 15.89C32.9423 16 32.781 16.055 32.5756 16.055C32.385 16.055 32.2273 15.9963 32.1026 15.879C31.9853 15.7617 31.9266 15.6077 31.9266 15.417V15.175C31.802 15.461 31.604 15.6847 31.3326 15.846C31.0686 16.0073 30.7606 16.088 30.4086 16.088C30.0493 16.088 29.723 16.0147 29.4296 15.868C29.1363 15.7213 28.9053 15.5197 28.7366 15.263C28.568 15.0063 28.4836 14.7203 28.4836 14.405C28.4836 14.009 28.5826 13.6973 28.7806 13.47C28.986 13.2427 29.316 13.0777 29.7706 12.975C30.2253 12.8723 30.8523 12.821 31.6516 12.821H31.9266V12.568C31.9266 12.2087 31.8496 11.9483 31.6956 11.787C31.5416 11.6183 31.2923 11.534 30.9476 11.534C30.735 11.534 30.5186 11.567 30.2986 11.633C30.0786 11.6917 29.8183 11.7797 29.5176 11.897C29.327 11.9923 29.1876 12.04 29.0996 12.04C28.9676 12.04 28.8576 11.9923 28.7696 11.897C28.689 11.8017 28.6486 11.677 28.6486 11.523C28.6486 11.3983 28.678 11.292 28.7366 11.204C28.8026 11.1087 28.909 11.0207 29.0556 10.94C29.3123 10.8007 29.6166 10.6907 29.9686 10.61C30.328 10.5293 30.68 10.489 31.0246 10.489ZM30.6836 15.098C31.0503 15.098 31.3473 14.977 31.5746 14.735C31.8093 14.4857 31.9266 14.1667 31.9266 13.778V13.547H31.7286C31.2373 13.547 30.856 13.569 30.5846 13.613C30.3133 13.657 30.119 13.734 30.0016 13.844C29.8843 13.954 29.8256 14.1043 29.8256 14.295C29.8256 14.5297 29.9063 14.724 30.0676 14.878C30.2363 15.0247 30.4416 15.098 30.6836 15.098ZM43.0041 10.918C43.0554 10.786 43.1287 10.687 43.2241 10.621C43.3267 10.555 43.4367 10.522 43.5541 10.522C43.7227 10.522 43.8731 10.5807 44.0051 10.698C44.1444 10.808 44.2141 10.9473 44.2141 11.116C44.2141 11.2113 44.1957 11.2957 44.1591 11.369L42.3441 15.626C42.2854 15.7653 42.1937 15.8717 42.0691 15.945C41.9517 16.0183 41.8197 16.055 41.6731 16.055C41.5337 16.055 41.4017 16.0183 41.2771 15.945C41.1597 15.8717 41.0717 15.7653 41.0131 15.626L39.7041 12.48L38.4391 15.626C38.3804 15.7653 38.2887 15.8717 38.1641 15.945C38.0467 16.0183 37.9147 16.055 37.7681 16.055C37.6287 16.055 37.4967 16.0183 37.3721 15.945C37.2474 15.8717 37.1557 15.7653 37.0971 15.626L35.2931 11.369C35.2564 11.2737 35.2381 11.193 35.2381 11.127C35.2381 10.9583 35.3114 10.8153 35.4581 10.698C35.6047 10.5733 35.7661 10.511 35.9421 10.511C36.0667 10.511 36.1804 10.544 36.2831 10.61C36.3857 10.676 36.4627 10.775 36.5141 10.907L37.8121 14.262L39.1431 10.94C39.2017 10.8007 39.2861 10.698 39.3961 10.632C39.5061 10.5587 39.6271 10.522 39.7591 10.522C39.8911 10.522 40.0121 10.5587 40.1221 10.632C40.2321 10.698 40.3164 10.8007 40.3751 10.94L41.7171 14.273L43.0041 10.918ZM50.656 8.19C50.8614 8.19 51.03 8.24867 51.162 8.366C51.294 8.48333 51.36 8.63733 51.36 8.828V15.406C51.36 15.604 51.2977 15.7617 51.173 15.879C51.0484 15.9963 50.8834 16.055 50.678 16.055C50.4727 16.055 50.3077 15.9963 50.183 15.879C50.0584 15.7617 49.996 15.604 49.996 15.406V15.131C49.8347 15.4317 49.6 15.6663 49.292 15.835C48.9914 16.0037 48.6467 16.088 48.258 16.088C47.796 16.088 47.3817 15.9707 47.015 15.736C46.6557 15.5013 46.3734 15.1713 46.168 14.746C45.97 14.3133 45.871 13.8183 45.871 13.261C45.871 12.7037 45.97 12.216 46.168 11.798C46.3734 11.38 46.6557 11.0573 47.015 10.83C47.3744 10.6027 47.7887 10.489 48.258 10.489C48.6467 10.489 48.9914 10.5697 49.292 10.731C49.5927 10.8923 49.8237 11.1197 49.985 11.413V8.806C49.985 8.62267 50.0437 8.476 50.161 8.366C50.2857 8.24867 50.4507 8.19 50.656 8.19ZM48.621 15.021C49.061 15.021 49.3984 14.8707 49.633 14.57C49.875 14.2693 49.996 13.8403 49.996 13.283C49.996 12.7257 49.875 12.3003 49.633 12.007C49.3984 11.7063 49.0647 11.556 48.632 11.556C48.192 11.556 47.851 11.7027 47.609 11.996C47.367 12.2893 47.246 12.711 47.246 13.261C47.246 13.8183 47.367 14.251 47.609 14.559C47.851 14.867 48.1884 15.021 48.621 15.021ZM57.8785 14.966C58.2891 14.966 58.4945 15.1383 58.4945 15.483C58.4945 15.6443 58.4431 15.7727 58.3405 15.868C58.2378 15.956 58.0838 16 57.8785 16H54.2045C54.0211 16 53.8708 15.9413 53.7535 15.824C53.6361 15.7067 53.5775 15.5673 53.5775 15.406C53.5775 15.2373 53.6435 15.076 53.7755 14.922L56.6025 11.655H54.1495C53.9441 11.655 53.7901 11.611 53.6875 11.523C53.5848 11.435 53.5335 11.3067 53.5335 11.138C53.5335 10.9693 53.5848 10.841 53.6875 10.753C53.7901 10.665 53.9441 10.621 54.1495 10.621H57.7025C57.8931 10.621 58.0435 10.6797 58.1535 10.797C58.2708 10.907 58.3295 11.0463 58.3295 11.215C58.3295 11.391 58.2671 11.5523 58.1425 11.699L55.3045 14.966H57.8785ZM62.8602 10.489C63.6082 10.489 64.1618 10.676 64.5212 11.05C64.8878 11.4167 65.0712 11.9777 65.0712 12.733V15.417C65.0712 15.615 65.0125 15.7727 64.8952 15.89C64.7778 16 64.6165 16.055 64.4112 16.055C64.2205 16.055 64.0628 15.9963 63.9382 15.879C63.8208 15.7617 63.7622 15.6077 63.7622 15.417V15.175C63.6375 15.461 63.4395 15.6847 63.1682 15.846C62.9042 16.0073 62.5962 16.088 62.2442 16.088C61.8848 16.088 61.5585 16.0147 61.2652 15.868C60.9718 15.7213 60.7408 15.5197 60.5722 15.263C60.4035 15.0063 60.3192 14.7203 60.3192 14.405C60.3192 14.009 60.4182 13.6973 60.6162 13.47C60.8215 13.2427 61.1515 13.0777 61.6062 12.975C62.0608 12.8723 62.6878 12.821 63.4872 12.821H63.7622V12.568C63.7622 12.2087 63.6852 11.9483 63.5312 11.787C63.3772 11.6183 63.1278 11.534 62.7832 11.534C62.5705 11.534 62.3542 11.567 62.1342 11.633C61.9142 11.6917 61.6538 11.7797 61.3532 11.897C61.1625 11.9923 61.0232 12.04 60.9352 12.04C60.8032 12.04 60.6932 11.9923 60.6052 11.897C60.5245 11.8017 60.4842 11.677 60.4842 11.523C60.4842 11.3983 60.5135 11.292 60.5722 11.204C60.6382 11.1087 60.7445 11.0207 60.8912 10.94C61.1478 10.8007 61.4522 10.6907 61.8042 10.61C62.1635 10.5293 62.5155 10.489 62.8602 10.489ZM62.5192 15.098C62.8858 15.098 63.1828 14.977 63.4102 14.735C63.6448 14.4857 63.7622 14.1667 63.7622 13.778V13.547H63.5642C63.0728 13.547 62.6915 13.569 62.4202 13.613C62.1488 13.657 61.9545 13.734 61.8372 13.844C61.7198 13.954 61.6612 14.1043 61.6612 14.295C61.6612 14.5297 61.7418 14.724 61.9032 14.878C62.0718 15.0247 62.2772 15.098 62.5192 15.098ZM73.9596 10.489C74.5463 10.489 74.9936 10.665 75.3016 11.017C75.6169 11.3617 75.7746 11.9227 75.7746 12.7V15.406C75.7746 15.6187 75.7086 15.7837 75.5766 15.901C75.4519 16.011 75.2869 16.066 75.0816 16.066C74.8836 16.066 74.7186 16.011 74.5866 15.901C74.4619 15.7837 74.3996 15.6187 74.3996 15.406V12.7C74.3996 12.2967 74.3263 12.0107 74.1796 11.842C74.0403 11.666 73.8239 11.578 73.5306 11.578C73.1713 11.578 72.8853 11.7027 72.6726 11.952C72.4599 12.194 72.3536 12.5277 72.3536 12.953V15.406C72.3536 15.6187 72.2876 15.7837 72.1556 15.901C72.0309 16.011 71.8696 16.066 71.6716 16.066C71.4736 16.066 71.3086 16.011 71.1766 15.901C71.0446 15.7837 70.9786 15.6187 70.9786 15.406V12.7C70.9786 12.2967 70.9053 12.0107 70.7586 11.842C70.6193 11.666 70.4029 11.578 70.1096 11.578C69.7503 11.578 69.4643 11.7027 69.2516 11.952C69.0463 12.194 68.9436 12.5277 68.9436 12.953V15.406C68.9436 15.6187 68.8776 15.7837 68.7456 15.901C68.6136 16.011 68.4486 16.066 68.2506 16.066C68.0526 16.066 67.8876 16.011 67.7556 15.901C67.6309 15.7837 67.5686 15.6187 67.5686 15.406V11.149C67.5686 10.9437 67.6346 10.786 67.7666 10.676C67.8986 10.566 68.0636 10.511 68.2616 10.511C68.4523 10.511 68.6063 10.566 68.7236 10.676C68.8483 10.7787 68.9106 10.929 68.9106 11.127V11.391C69.0793 11.0977 69.3029 10.874 69.5816 10.72C69.8676 10.566 70.1939 10.489 70.5606 10.489C71.3673 10.489 71.9063 10.8263 72.1776 11.501C72.3389 11.193 72.5773 10.9473 72.8926 10.764C73.2079 10.5807 73.5636 10.489 73.9596 10.489Z" fill="black"/>
<path d="M10 2H75V-2H10V2ZM83 10V15H87V10H83ZM75 23H10V27H75V23ZM2 15V10H-2V15H2ZM10 23C5.58172 23 2 19.4183 2 15H-2C-2 21.6274 3.37258 27 10 27V23ZM83 15C83 19.4183 79.4183 23 75 23V27C81.6274 27 87 21.6274 87 15H83ZM75 2C79.4183 2 83 5.58172 83 10H87C87 3.37258 81.6274 -2 75 -2V2ZM10 -2C3.37258 -2 -2 3.37258 -2 10H2C2 5.58172 5.58172 2 10 2V-2Z" fill="black"/>
</svg>
