<svg width="70" height="24" viewBox="0 0 70 24" fill="none" xmlns="http://www.w3.org/2000/svg">
<path d="M0.939358 10.9393C0.353571 11.5251 0.353571 12.4749 0.939358 13.0607L10.4853 22.6066C11.0711 23.1924 12.0208 23.1924 12.6066 22.6066C13.1924 22.0208 13.1924 21.0711 12.6066 20.4853L4.12134 12L12.6066 3.51472C13.1924 2.92893 13.1924 1.97919 12.6066 1.3934C12.0208 0.807611 11.0711 0.807611 10.4853 1.3934L0.939358 10.9393ZM23.4286 10.5L2.00002 10.5V13.5L23.4286 13.5V10.5Z" fill="black"/>
<path d="M69.0606 13.0607C69.6464 12.4749 69.6464 11.5251 69.0606 10.9393L59.5147 1.3934C58.9289 0.807611 57.9792 0.807611 57.3934 1.3934C56.8076 1.97919 56.8076 2.92893 57.3934 3.51472L65.8787 12L57.3934 20.4853C56.8076 21.0711 56.8076 22.0208 57.3934 22.6066C57.9792 23.1924 58.9289 23.1924 59.5147 22.6066L69.0606 13.0607ZM46.5714 13.5H68V10.5H46.5714V13.5Z" fill="black"/>
</svg>
